<svg width="20" height="20" viewBox="0 0 20 20" fill="none" xmlns="http://www.w3.org/2000/svg">
<path d="M12.7331 10L15.8348 6.90509C16.2004 6.54036 16.4017 6.05505 16.4017 5.53864C16.4017 5.0222 16.2004 4.53689 15.8348 4.17208C15.8348 4.17208 15.8348 4.17208 15.8348 4.17208C15.083 3.42193 13.8596 3.42197 13.1078 4.17208L10 7.27298L6.89223 4.172C6.14035 3.42193 4.91703 3.42189 4.16516 4.17204C3.79957 4.53685 3.59828 5.0222 3.59828 5.53861C3.59832 6.05501 3.79961 6.54032 4.1652 6.90505L7.26691 10L4.16516 13.0949C3.79957 13.4597 3.59828 13.945 3.59828 14.4614C3.59828 14.9778 3.79957 15.4632 4.1652 15.8279C4.54113 16.2031 5.03481 16.3906 5.52867 16.3906C6.02246 16.3905 6.51633 16.203 6.89223 15.8279L10 12.727L13.1078 15.828C13.8596 16.5781 15.083 16.5781 15.8348 15.828C16.2004 15.4632 16.4017 14.9778 16.4017 14.4614C16.4017 13.945 16.2004 13.4597 15.8348 13.095L12.7331 10ZM15.0198 15.0112C14.7174 15.313 14.2253 15.313 13.9228 15.0112L10.4075 11.5037C10.2949 11.3913 10.1475 11.3351 10 11.3351C9.85258 11.3351 9.70516 11.3913 9.59254 11.5037L6.07731 15.0112C5.77484 15.3129 5.28266 15.313 4.98027 15.0112C4.8332 14.8645 4.75215 14.6692 4.75215 14.4615C4.75219 14.2537 4.83316 14.0584 4.98024 13.9117L8.49129 10.4084C8.59977 10.3002 8.6607 10.1533 8.6607 10C8.6607 9.84677 8.59973 9.69982 8.49129 9.59161L4.98024 6.08829C4.8332 5.94157 4.75219 5.7463 4.75219 5.53857C4.75219 5.33083 4.83316 5.13552 4.98027 4.9888C5.2827 4.68704 5.77481 4.68704 6.07731 4.9888L9.59254 8.49634C9.81774 8.72103 10.1823 8.72103 10.4075 8.49634L13.9227 4.9888C14.2251 4.68708 14.7173 4.687 15.0198 4.9888C15.1668 5.13556 15.2479 5.33083 15.2479 5.53857C15.2479 5.7463 15.1669 5.94154 15.0198 6.08829L11.5088 9.59161C11.4003 9.69982 11.3394 9.84677 11.3394 10C11.3394 10.1533 11.4004 10.3002 11.5088 10.4084L15.0198 13.9117C15.1669 14.0584 15.2479 14.2537 15.2479 14.4615C15.2479 14.6692 15.1669 14.8645 15.0198 15.0112Z" fill="#707070"/>
<path d="M17.1154 0H2.88461C1.29402 0 0 1.29402 0 2.88461V17.1154C0 18.706 1.29402 20 2.88461 20H17.1154C18.706 20 20 18.706 20 17.1154V2.88461C20 1.29402 18.706 0 17.1154 0ZM18.8462 17.1154C18.8462 18.0697 18.0698 18.8462 17.1154 18.8462H2.88461C1.93027 18.8462 1.15383 18.0698 1.15383 17.1154V2.88461C1.15383 1.93027 1.93023 1.15383 2.88461 1.15383H17.1154C18.0697 1.15383 18.8462 1.93023 18.8462 2.88461V17.1154Z" fill="#707070"/>
</svg>
