<svg width="50" height="50" viewBox="0 0 50 50" fill="none" xmlns="http://www.w3.org/2000/svg">
<g clip-path="url(#clip0)">
<path d="M3.12989 17.1948C3.36614 17.1948 3.60326 17.1103 3.79177 16.9389C5.98437 14.947 6.45755 13.5216 6.87498 12.2639L6.89841 12.1931C7.14559 11.4508 7.11113 10.6578 6.89285 9.91922C8.09829 9.80148 9.3789 9.20442 10.445 8.16279C11.4817 7.15328 12.1226 5.90225 12.2488 4.67123C12.6526 4.78974 13.0724 4.85808 13.4924 4.85808C13.8619 4.85808 14.2313 4.80643 14.5888 4.69309L14.671 4.66693C15.9517 4.25994 17.4034 3.79848 19.4361 1.66377C19.8112 1.26986 19.7959 0.646544 19.402 0.271381C19.008 -0.103685 18.3846 -0.0883579 18.0096 0.305549C16.3252 2.07447 15.2821 2.40599 14.0743 2.78975L13.9922 2.81591C13.1904 3.07012 12.1304 2.64185 11.5491 2.06178C11.4786 1.97372 11.4034 1.88928 11.3233 1.80923C11.3196 1.80523 11.3157 1.80132 11.3119 1.79742C11.3071 1.79263 11.3027 1.78756 11.2978 1.78287C11.2835 1.76891 11.2699 1.7568 11.2567 1.74558C10.9076 1.44031 10.3803 1.41561 10.0018 1.71239C9.57376 2.04801 9.49888 2.66704 9.83451 3.09501C9.90118 3.18004 9.97489 3.26302 10.0515 3.34483C10.256 3.63135 10.3037 3.97371 10.3035 4.2289C10.3028 5.05752 9.84193 6.00065 9.06954 6.75283C7.91652 7.8793 6.35905 8.28502 5.52359 7.71929C5.44442 7.64803 5.36359 7.58067 5.28149 7.518C5.27915 7.51604 5.27661 7.51419 5.27417 7.51224C5.26851 7.50804 5.26304 7.50335 5.25738 7.49916C5.25025 7.49379 5.2441 7.49066 5.23727 7.48578C4.84844 7.20844 4.30536 7.24729 3.96163 7.5999C3.58198 7.98942 3.58999 8.61293 3.9796 8.99258C4.07136 9.08201 4.16781 9.1643 4.26768 9.24094C4.85127 9.80227 5.28237 10.8119 5.02943 11.5713L5.00551 11.6433C4.61492 12.82 4.27764 13.8362 2.46733 15.4809C2.06473 15.8466 2.03476 16.4694 2.40055 16.8721C2.59511 17.0862 2.86201 17.1948 3.12989 17.1948V17.1948Z" fill="#3F99B8"/>
<path d="M47.7437 32.5389C47.3782 32.136 46.7554 32.1057 46.3526 32.4712C44.1651 34.4558 43.6904 35.8772 43.2715 37.1312L43.2422 37.2191C42.9968 37.9602 43.032 38.7522 43.2499 39.4901C42.0441 39.6077 40.7626 40.2055 39.6949 41.2489C38.6603 42.2597 38.021 43.51 37.8949 44.7392C37.1365 44.5171 36.3197 44.4778 35.5568 44.7196L35.4867 44.7418C34.2015 45.1475 32.7448 45.6074 30.7055 47.7461C30.3301 48.1398 30.345 48.7631 30.7386 49.1385C30.9292 49.3202 31.1739 49.4105 31.418 49.4105C31.678 49.4104 31.9375 49.3082 32.131 49.1053C33.8209 47.333 34.8676 47.0026 36.0797 46.6199L36.1513 46.5973C36.9542 46.3426 38.0141 46.7699 38.5948 47.3491C38.6728 47.4465 38.756 47.5399 38.8457 47.6275C39.0374 47.8147 39.2857 47.9079 39.534 47.9079C39.7898 47.9079 40.0455 47.8089 40.2385 47.6114C40.5506 47.2919 40.6011 46.8146 40.3939 46.4436C40.3832 46.4165 40.3564 46.3759 40.3091 46.3154C40.3046 46.3097 40.2997 46.3041 40.2951 46.2984C40.2927 46.2954 40.2903 46.2923 40.2877 46.2894C40.2251 46.2112 40.1583 46.1343 40.0872 46.059C39.887 45.7742 39.84 45.4359 39.84 45.1834C39.84 44.3553 40.3003 43.4111 41.0713 42.6577C42.2064 41.5487 43.7946 41.1374 44.6213 41.6945C44.6989 41.7644 44.778 41.8303 44.8584 41.8918C44.8607 41.8937 44.8633 41.8956 44.8657 41.8975C44.8714 41.9017 44.8768 41.9063 44.8824 41.9105C44.8844 41.9119 44.8863 41.9124 44.8883 41.9136C45.2776 42.2028 45.8299 42.1678 46.1785 41.8113C46.5585 41.4223 46.5513 40.7988 46.1622 40.4186C46.0706 40.3291 45.9743 40.2467 45.8747 40.17C45.2919 39.6081 44.8606 38.5978 45.111 37.8409L45.1397 37.7551C45.5317 36.5817 45.8701 35.5684 47.676 33.93C48.079 33.5645 48.1091 32.9417 47.7437 32.5389V32.5389Z" fill="#3F99B8"/>
<path d="M26.4494 41.8472V38.0459C26.4494 37.9006 26.4561 37.77 26.468 37.65H37.7396C38.7905 37.65 39.6454 36.7948 39.6454 35.7436V31.3908C39.6454 30.4176 38.9122 29.6139 37.9696 29.4998V27.0878C37.9696 26.7688 37.945 26.5405 37.9271 26.3853C38.0467 26.2511 38.2741 26.0221 38.5278 25.7665L38.5545 25.7395C39.3939 24.894 40.6364 23.6526 41.8381 22.452C42.4494 21.8412 43.0606 21.2305 43.624 20.6667C44.8977 19.3917 44.8976 17.3174 43.6239 16.0423C43.0085 15.4265 42.1875 15.0875 41.3123 15.0875C40.437 15.0875 39.6161 15.4266 39.0007 16.0424L37.9694 17.0744V5.10517C37.9694 3.30179 36.5042 1.83472 34.7032 1.83472C34.1698 1.83472 33.6664 1.96407 33.2211 2.19172C32.7756 0.917066 31.5622 0 30.138 0C28.4164 0 27.0026 1.33733 26.8788 3.02718C26.4784 2.85146 26.0368 2.75335 25.5725 2.75335C23.8509 2.75335 22.4371 4.09185 22.3133 5.78316C21.9129 5.60763 21.4713 5.50962 21.007 5.50962C19.2045 5.50962 17.7381 6.97552 17.7381 8.77734V12.6167C17.3404 12.4437 16.9021 12.3473 16.4416 12.3473C15.0163 12.3473 13.8019 13.265 13.3557 14.5406C12.9111 14.3136 12.4087 14.1846 11.8762 14.1846C10.0737 14.1846 8.60736 15.6505 8.60736 17.4525V29.7178L7.57608 28.6857C6.96066 28.0699 6.14024 27.7307 5.26584 27.7307C4.39143 27.7307 3.57111 28.07 2.9559 28.6857C1.68251 29.9599 1.68251 32.0332 2.9559 33.3073C3.51801 33.8698 4.12776 34.4792 4.7378 35.0887C5.9408 36.2908 7.18471 37.5338 8.02426 38.3793L8.03998 38.3952C8.29829 38.656 8.52955 38.8894 8.65041 39.0256C8.63225 39.181 8.60746 39.4092 8.60746 39.7285V41.8471C7.66481 41.9611 6.93167 42.7649 6.93167 43.7381V48.0936C6.93167 49.1448 7.78645 50 8.83726 50H13.0958C13.6396 50 14.0806 49.559 14.0806 49.0152C14.0806 48.4712 13.6396 48.0304 13.0958 48.0304H8.90111V43.8016H26.1529V48.0303H21.9085C21.3647 48.0303 20.9237 48.4712 20.9237 49.0151C20.9237 49.559 21.3647 49.9999 21.9085 49.9999H26.2194C27.2688 49.9999 28.1224 49.1447 28.1224 48.0935V43.738C28.1225 42.7651 27.3905 41.9614 26.4494 41.8472V41.8472ZM37.6757 35.6802H27.7411C28.2895 35.0604 28.8386 34.163 28.8386 32.5005V31.4542H37.6757V35.6802ZM19.7078 8.77734C19.7078 8.06157 20.2907 7.47935 21.0072 7.47935C21.722 7.47935 22.3036 8.06167 22.3036 8.77734V12.8396C22.3036 13.3836 22.7446 13.8244 23.2884 13.8244C23.8323 13.8244 24.2732 13.3835 24.2732 12.8396V6.02399C24.2732 5.30666 24.8562 4.72307 25.5727 4.72307C26.2875 4.72307 26.8691 5.30666 26.8691 6.02399V12.8396C26.8691 13.3836 27.3101 13.8244 27.8539 13.8244C28.3978 13.8244 28.8387 13.3835 28.8387 12.8396V3.26782C28.8387 2.55205 29.4217 1.96973 30.1382 1.96973C30.853 1.96973 31.4346 2.55205 31.4346 3.26782V12.8396C31.4346 13.3836 31.8756 13.8244 32.4194 13.8244C32.9633 13.8244 33.4043 13.3835 33.4043 12.8396V5.10517C33.4043 4.38794 33.9872 3.80435 34.7036 3.80435C35.4185 3.80435 36.0001 4.38794 36.0001 5.10517V19.4532C36.0001 19.9972 36.4411 20.4381 36.985 20.4381C37.2314 20.4381 37.4564 20.3469 37.6292 20.197C37.6455 20.1836 37.6624 20.1684 37.6805 20.1503C37.6809 20.1499 37.6812 20.1497 37.6815 20.1493H37.6816L40.3942 17.4346C40.6375 17.1911 40.9637 17.057 41.3126 17.057C41.6615 17.057 41.9876 17.1911 42.2308 17.4345C42.7376 17.9417 42.7376 18.7671 42.2309 19.2744C41.6679 19.8378 41.0571 20.448 40.4462 21.0585C39.2432 22.2606 37.9993 23.5034 37.1571 24.3517L37.1303 24.3787C36.1298 25.3865 35.8608 25.6574 35.9682 26.5891C35.9831 26.7193 36.0002 26.8667 36.0002 27.0878V29.4844H28.8386V21.1272C28.8386 19.3238 27.3735 17.8567 25.5726 17.8567C25.1071 17.8567 24.6645 17.9551 24.2635 18.1313C24.1402 16.4411 22.7274 15.1034 21.0072 15.1034C20.5455 15.1034 20.1063 15.2 19.7078 15.3733V8.77734ZM6.12999 33.6955C5.52034 33.0862 4.91088 32.4772 4.34907 31.915C3.84289 31.4086 3.84289 30.5845 4.34916 30.0779C4.59234 29.8345 4.91791 29.7005 5.26584 29.7005C5.61386 29.7005 5.93953 29.8346 6.18281 30.078L8.89437 32.7915C8.89769 32.7949 8.90111 32.7981 8.90452 32.8015C8.90452 32.8015 8.90452 32.8016 8.90462 32.8016L8.9054 32.8024C8.90569 32.8026 8.90589 32.8029 8.90618 32.8031L8.90628 32.8032C8.99892 32.8931 9.10484 32.9613 9.2176 33.0075C9.32869 33.0532 9.44994 33.0792 9.57714 33.0811H9.57822C9.58759 33.0812 9.59676 33.0812 9.60614 33.0811H9.60721C9.7351 33.0792 9.85712 33.0529 9.9689 33.0067C10.085 32.9586 10.1939 32.8875 10.2882 32.7931C10.3835 32.6979 10.4552 32.5881 10.5032 32.4709C10.5486 32.3608 10.5745 32.2406 10.5768 32.1147C10.5768 32.1145 10.5768 32.1144 10.5768 32.1144C10.5768 32.1141 10.5768 32.1138 10.5768 32.1136C10.5769 32.1073 10.5769 32.1009 10.5769 32.0945V17.4524C10.5769 16.7366 11.1598 16.1543 11.8762 16.1543C12.591 16.1543 13.1727 16.7366 13.1727 17.4524V25.1868C13.1727 25.7308 13.6136 26.1716 14.1575 26.1716C14.7013 26.1716 15.1423 25.7307 15.1423 25.1868V15.6177C15.1423 14.9004 15.7252 14.3169 16.4416 14.3169C17.1565 14.3169 17.7381 14.9005 17.7381 15.6177V20.1531V25.1868C17.7381 25.7308 18.1791 26.1716 18.7229 26.1716C19.2668 26.1716 19.7077 25.7307 19.7077 25.1868V20.1532V18.3712C19.7077 17.6554 20.2906 17.0731 21.0071 17.0731C21.7219 17.0731 22.3035 17.6554 22.3035 18.3712V25.1869C22.3035 25.7308 22.7445 26.1717 23.2883 26.1717C23.8322 26.1717 24.2731 25.7308 24.2731 25.1869V21.1273C24.2731 20.41 24.8561 19.8264 25.5726 19.8264C26.2874 19.8264 26.869 20.4099 26.869 21.1273V32.5005C26.869 33.7899 26.4717 34.185 25.9217 34.7319C25.5325 35.119 25.0859 35.564 24.7941 36.2723C24.7903 36.281 24.7869 36.2898 24.7834 36.2987C24.5997 36.7549 24.4799 37.319 24.4799 38.0459V41.8317H10.5769V39.7285C10.5769 39.5077 10.5942 39.3608 10.6093 39.2312C10.7183 38.3003 10.4473 38.0268 9.4392 37.0091L9.4227 36.9924C8.57964 36.1433 7.33436 34.8989 6.12999 33.6955V33.6955Z" fill="#3F99B8"/>
<path d="M17.5284 48.0303H17.5228C16.979 48.0303 16.5409 48.4712 16.5409 49.0151C16.5409 49.5591 16.9846 49.9999 17.5284 49.9999C18.0723 49.9999 18.5132 49.559 18.5132 49.0151C18.5132 48.4712 18.0724 48.0303 17.5284 48.0303Z" fill="#3F99B8"/>
</g>
<defs>
<clipPath id="clip0">
<rect width="50" height="50" fill="white"/>
</clipPath>
</defs>
</svg>
