<svg width="20" height="20" viewBox="0 0 20 20" fill="none" xmlns="http://www.w3.org/2000/svg">
<path d="M18.2422 0H1.75781C0.788516 0 0 0.788516 0 1.75781V13.5547C0 14.524 0.788516 15.3125 1.75781 15.3125H7.03125V16.4844H12.9297V15.3125H18.2422C19.2115 15.3125 20 14.524 20 13.5547V1.75781C20 0.788516 19.2115 0 18.2422 0ZM6.85961 10.4143L4.51586 12.758C4.28699 12.9869 3.91617 12.9869 3.6873 12.758L2.51543 11.5861C2.28652 11.3573 2.28652 10.9865 2.51543 10.7576C2.7443 10.5287 3.11512 10.5287 3.34398 10.7576L4.10156 11.5152L6.03105 9.5857C6.25992 9.35684 6.63074 9.35684 6.85961 9.5857C7.08848 9.81457 7.08848 10.1854 6.85961 10.4143ZM6.85961 6.89863L4.51586 9.24238C4.28699 9.47125 3.91617 9.47125 3.6873 9.24238L2.51543 8.07051C2.28652 7.84164 2.28652 7.47086 2.51543 7.24199C2.7443 7.01313 3.11512 7.01313 3.34398 7.24199L4.10156 7.99957L6.03105 6.07008C6.25992 5.84121 6.63074 5.84121 6.85961 6.07008C7.08848 6.29895 7.08848 6.66977 6.85961 6.89863ZM6.85961 3.38301L4.51586 5.72676C4.28699 5.95562 3.91617 5.95562 3.6873 5.72676L2.51543 4.55488C2.28652 4.32602 2.28652 3.95523 2.51543 3.72637C2.7443 3.4975 3.11512 3.4975 3.34398 3.72637L4.10156 4.48395L6.03105 2.55445C6.25992 2.32559 6.63074 2.32559 6.85961 2.55445C7.08848 2.78332 7.08848 3.15414 6.85961 3.38301ZM17.0703 11.7578H8.78906C8.4652 11.7578 8.20312 11.4957 8.20312 11.1719C8.20312 10.848 8.4652 10.5859 8.78906 10.5859H17.0703C17.3942 10.5859 17.6562 10.848 17.6562 11.1719C17.6562 11.4957 17.3942 11.7578 17.0703 11.7578ZM17.0703 8.24219H8.78906C8.4652 8.24219 8.20312 7.98012 8.20312 7.65625C8.20312 7.33238 8.4652 7.07031 8.78906 7.07031H17.0703C17.3942 7.07031 17.6562 7.33238 17.6562 7.65625C17.6562 7.98012 17.3942 8.24219 17.0703 8.24219ZM17.0703 4.72656H8.78906C8.4652 4.72656 8.20312 4.46449 8.20312 4.14062C8.20312 3.81676 8.4652 3.55469 8.78906 3.55469H17.0703C17.3942 3.55469 17.6562 3.81676 17.6562 4.14062C17.6562 4.46449 17.3942 4.72656 17.0703 4.72656Z" fill="#707070"/>
<path d="M14.1016 17.6562H5.89844C4.60582 17.6562 3.55469 18.7074 3.55469 20H16.4453C16.4453 18.7074 15.3942 17.6562 14.1016 17.6562Z" fill="#707070"/>
</svg>
