<svg width="100" height="50" viewBox="0 0 100 50" fill="none" xmlns="http://www.w3.org/2000/svg">
<g clip-path="url(#clip0)">
<path d="M0.0241089 50H99.9761V0H0.0241089V50Z" fill="#E32124"/>
<path d="M87.1006 20C87.1748 20 87.249 20 87.2914 19.8986C87.302 19.8551 87.3126 19.8116 87.3126 19.7681C87.3129 19.7271 87.3051 19.6866 87.2903 19.651C87.2754 19.6153 87.2538 19.5857 87.2278 19.5652C87.1748 19.5362 87.1218 19.5362 87.0053 19.5362H86.9523V19.9855H87.1006V20ZM87.0053 19.2899C87.1642 19.2899 87.2384 19.2899 87.302 19.3333C87.5139 19.4203 87.5351 19.6812 87.5351 19.7681C87.5351 19.7826 87.5351 19.8406 87.5245 19.8986C87.5139 19.9565 87.4927 20.0725 87.3762 20.1739C87.355 20.1884 87.355 20.1884 87.3232 20.2029L87.5881 20.8696H87.3338L87.1006 20.2609H86.9523V20.8696H86.7191V19.2899H87.0053ZM87.1006 21.5217C87.3733 21.5217 87.6347 21.3736 87.8275 21.11C88.0203 20.8464 88.1286 20.4888 88.1286 20.1159C88.1286 19.7431 88.0203 19.3855 87.8275 19.1219C87.6347 18.8583 87.3733 18.7101 87.1006 18.7101C86.539 18.7101 86.0833 19.3333 86.0833 20.1159C86.0833 20.8841 86.539 21.5217 87.1006 21.5217V21.5217ZM86.2953 20.1159C86.2953 19.5072 86.6556 19 87.1006 19C87.5563 19 87.9166 19.5072 87.9166 20.1159C87.9166 20.7101 87.5457 21.2174 87.1006 21.2174C86.6662 21.2174 86.2953 20.7101 86.2953 20.1159ZM79.1528 29.058C77.7964 29.058 76.6625 27.8116 76.3128 26.1159H83.8155L84.8541 23.913H76.3022C76.4757 23.0646 76.8469 22.3168 77.3595 21.7832C77.8721 21.2495 78.498 20.9593 79.1422 20.9565H84.3136L85.3415 18.7536H79.0256C76.4929 18.7536 74.4477 21.5507 74.4477 25C74.4477 28.4493 76.4929 31.2464 79.0256 31.2464H84.4514L85.4793 29.0435H79.1422L79.1528 29.058ZM57.6513 31.2609C56.4399 31.2609 55.2782 30.6028 54.4216 29.4313C53.5651 28.2599 53.0839 26.6711 53.0839 25.0145C53.0839 23.3579 53.5651 21.7691 54.4216 20.5976C55.2782 19.4262 56.4399 18.7681 57.6513 18.7681H63.9671L62.9286 20.971H57.7572C56.9868 20.9992 56.2548 21.4376 55.7172 22.1928C55.1796 22.9481 54.8787 23.9605 54.8787 25.0145C54.8787 26.0685 55.1796 27.0809 55.7172 27.8362C56.2548 28.5914 56.9868 29.0298 57.7572 29.058H64.0943L63.0558 31.2609H57.6301H57.6513ZM24.2703 29.058C25.9023 29.058 27.2375 27.2464 27.2375 25.0145C27.2375 22.7826 25.9129 20.971 24.2703 20.971H19.1943C18.4239 20.9992 17.6919 21.4376 17.1543 22.1928C16.6167 22.9481 16.3158 23.9605 16.3158 25.0145C16.3158 26.0685 16.6167 27.0809 17.1543 27.8362C17.6919 28.5914 18.4239 29.0298 19.1943 29.058H24.2703ZM19.0777 31.2609C16.545 31.2609 14.4998 28.4638 14.4998 25.0145C14.4998 21.5652 16.545 18.7681 19.0777 18.7681H24.3869C25.5982 18.7681 26.76 19.4262 27.6165 20.5976C28.4731 21.7691 28.9543 23.3579 28.9543 25.0145C28.9543 26.6711 28.4731 28.2599 27.6165 29.4313C26.76 30.6028 25.5982 31.2609 24.3869 31.2609H19.0777ZM37.5803 27.2174C39.297 27.2174 40.6747 25.3188 40.6747 22.9855C40.6747 20.6522 39.297 18.7536 37.5803 18.7536H29.8868V31.2609H31.6459V20.9565H37.4637C38.2691 20.9565 38.9367 21.8696 38.9367 22.9855C38.9367 24.1015 38.2691 25 37.4637 25H32.5043L37.7393 31.2609H40.2932L36.7643 27.2174H37.5591H37.5803ZM66.6588 29.058V18.7681H64.9103V30.0725C64.9103 30.3913 64.9951 30.6812 65.1646 30.913C65.3342 31.1304 65.5673 31.2754 65.811 31.2754H73.8331L74.8716 29.0725H66.6694L66.6588 29.058ZM45.1467 26.8551H49.8412L47.3615 21.3913L42.8047 31.2754H40.7383L46.2699 19.4203C46.5137 18.942 46.9164 18.6522 47.3615 18.6522C47.7853 18.6522 48.188 18.9275 48.4318 19.3913L53.9847 31.2754H51.9076L50.9327 29.0725H46.1852L45.1467 26.8696V26.8551Z" fill="#FEFEFE"/>
</g>
<defs>
<clipPath id="clip0">
<rect width="100" height="50" fill="white"/>
</clipPath>
</defs>
</svg>
